<?xml version="1.0" encoding="us-ascii" standalone="no"?><svg xmlns="http://www.w3.org/2000/svg" xmlns:xlink="http://www.w3.org/1999/xlink" contentStyleType="text/css" height="527px" preserveAspectRatio="none" style="width:581px;height:527px;background:#FFFFFF;" version="1.1" viewBox="0 0 581 527" width="581px" zoomAndPan="magnify"><defs/><g><g id="ACTIVE"><rect fill="#F1F1F1" height="50" rx="12.5" ry="12.5" style="stroke:#181818;stroke-width:0.5;" width="70" x="160" y="134"/><line style="stroke:#181818;stroke-width:0.5;" x1="160" x2="230" y1="160.4883" y2="160.4883"/><text fill="#000000" font-family="sans-serif" font-size="14" lengthAdjust="spacing" textLength="50" x="170" y="152.5352">ACTIVE</text></g><g id="DRAFT"><rect fill="#F1F1F1" height="50" rx="12.5" ry="12.5" style="stroke:#181818;stroke-width:0.5;" width="66" x="444" y="261"/><line style="stroke:#181818;stroke-width:0.5;" x1="444" x2="510" y1="287.4883" y2="287.4883"/><text fill="#000000" font-family="sans-serif" font-size="14" lengthAdjust="spacing" textLength="46" x="454" y="279.5352">DRAFT</text></g><g id="REVIEW"><rect fill="#F1F1F1" height="50" rx="12.5" ry="12.5" style="stroke:#181818;stroke-width:0.5;" width="70" x="318" y="7"/><line style="stroke:#181818;stroke-width:0.5;" x1="318" x2="388" y1="33.4883" y2="33.4883"/><text fill="#000000" font-family="sans-serif" font-size="14" lengthAdjust="spacing" textLength="50" x="328" y="25.5352">REVIEW</text></g><g id="OUT_OF_STOCK"><rect fill="#F1F1F1" height="50" rx="12.5" ry="12.5" style="stroke:#181818;stroke-width:0.5;" width="130" x="7" y="261"/><line style="stroke:#181818;stroke-width:0.5;" x1="7" x2="137" y1="287.4883" y2="287.4883"/><text fill="#000000" font-family="sans-serif" font-size="14" lengthAdjust="spacing" textLength="110" x="17" y="279.5352">OUT_OF_STOCK</text></g><g id="DISCONTINUED"><rect fill="#F1F1F1" height="50" rx="12.5" ry="12.5" style="stroke:#181818;stroke-width:0.5;" width="124" x="192" y="261"/><line style="stroke:#181818;stroke-width:0.5;" x1="192" x2="316" y1="287.4883" y2="287.4883"/><text fill="#000000" font-family="sans-serif" font-size="14" lengthAdjust="spacing" textLength="104" x="202" y="279.5352">DISCONTINUED</text></g><g id="REJECTED"><rect fill="#F1F1F1" height="50" rx="12.5" ry="12.5" style="stroke:#181818;stroke-width:0.5;" width="86" x="434" y="134"/><line style="stroke:#181818;stroke-width:0.5;" x1="434" x2="520" y1="160.4883" y2="160.4883"/><text fill="#000000" font-family="sans-serif" font-size="14" lengthAdjust="spacing" textLength="66" x="444" y="152.5352">REJECTED</text></g><ellipse cx="565" cy="159" fill="#222222" rx="10" ry="10" style="stroke:#222222;stroke-width:1.0;"/><ellipse cx="254" cy="383" fill="none" rx="11" ry="11" style="stroke:#222222;stroke-width:1.0;"/><ellipse cx="254" cy="383" fill="#222222" rx="6" ry="6" style="stroke:#222222;stroke-width:1.0;"/><!--link ACTIVE to DISCONTINUED--><g id="link_ACTIVE_DISCONTINUED"><path d="M206.52,184.4 C216.91,206.42 229.5698,233.2337 239.9498,255.2337 " fill="none" id="ACTIVE-to-DISCONTINUED" style="stroke:#181818;stroke-width:1.0;"/><polygon fill="#181818" points="242.51,260.66,242.2872,250.8137,240.3765,256.1381,235.0521,254.2273,242.51,260.66" style="stroke:#181818;stroke-width:1.0;"/><text fill="#000000" font-family="sans-serif" font-size="13" lengthAdjust="spacing" textLength="74" x="229.03" y="227.5684">discontinue</text></g><!--link ACTIVE to OUT_OF_STOCK--><g id="link_ACTIVE_OUT_OF_STOCK"><path d="M169.92,184.3 C160.48,193.54 149.69,204.19 140,214 C124.89,229.3 112.3122,242.3897 99.2422,256.1497 " fill="none" id="ACTIVE-to-OUT_OF_STOCK" style="stroke:#181818;stroke-width:1.0;"/><polygon fill="#181818" points="95.11,260.5,104.2085,256.7293,98.5535,256.8747,98.408,251.2198,95.11,260.5" style="stroke:#181818;stroke-width:1.0;"/><text fill="#000000" font-family="sans-serif" font-size="13" lengthAdjust="spacing" textLength="71" x="141" y="227.5684">outOfStock</text></g><!--link OUT_OF_STOCK to ACTIVE--><g id="link_OUT_OF_STOCK_ACTIVE"><path d="M63.77,260.73 C60.35,246.04 59.01,227.59 68,214 C88.22,183.43 123.7476,171.2414 153.7976,165.4714 " fill="none" id="OUT_OF_STOCK-to-ACTIVE" style="stroke:#181818;stroke-width:1.0;"/><polygon fill="#181818" points="159.69,164.34,150.0972,162.1089,154.7797,165.2828,151.6057,169.9654,159.69,164.34" style="stroke:#181818;stroke-width:1.0;"/><text fill="#000000" font-family="sans-serif" font-size="13" lengthAdjust="spacing" textLength="47" x="69" y="227.5684">restock</text></g><!--link *start* to DRAFT--><g id="link_*start*_DRAFT"><path d="M559.5,167.82 C546.66,186.05 517.7828,227.0631 497.6228,255.7131 " fill="none" id="*start*-to-DRAFT" style="stroke:#181818;stroke-width:1.0;"/><polygon fill="#181818" points="494.17,260.62,502.6205,255.5615,497.0474,256.5309,496.078,250.9577,494.17,260.62" style="stroke:#181818;stroke-width:1.0;"/></g><!--link DRAFT to REVIEW--><g id="link_DRAFT_REVIEW"><path d="M443.55,262.9 C419.09,244.79 387.44,216.85 371,184 C350.56,143.16 349.2349,94.5532 350.7149,63.4432 " fill="none" id="DRAFT-to-REVIEW" style="stroke:#181818;stroke-width:1.0;"/><polygon fill="#181818" points="351,57.45,346.5768,66.2498,350.7624,62.4444,354.5678,66.6299,351,57.45" style="stroke:#181818;stroke-width:1.0;"/><text fill="#000000" font-family="sans-serif" font-size="13" lengthAdjust="spacing" textLength="44" x="372" y="164.0684">submit</text></g><!--link REVIEW to ACTIVE--><g id="link_REVIEW_ACTIVE"><path d="M317.8,56.05 C304.17,65.32 288.6,76.32 275,87 C256.31,101.68 240.729,115.3713 225.399,129.4513 " fill="none" id="REVIEW-to-ACTIVE" style="stroke:#181818;stroke-width:1.0;"/><polygon fill="#181818" points="220.98,133.51,230.3142,130.368,224.6625,130.1278,224.9027,124.476,220.98,133.51" style="stroke:#181818;stroke-width:1.0;"/><text fill="#000000" font-family="sans-serif" font-size="13" lengthAdjust="spacing" textLength="50" x="276" y="100.5684">approve</text></g><!--link REVIEW to REJECTED--><g id="link_REVIEW_REJECTED"><path d="M377.2,57.4 C399.05,79.42 426.8038,107.4009 448.6338,129.4009 " fill="none" id="REVIEW-to-REJECTED" style="stroke:#181818;stroke-width:1.0;"/><polygon fill="#181818" points="452.86,133.66,449.3601,124.454,449.3382,130.1108,443.6814,130.0888,452.86,133.66" style="stroke:#181818;stroke-width:1.0;"/><text fill="#000000" font-family="sans-serif" font-size="13" lengthAdjust="spacing" textLength="35" x="423.42" y="100.5684">reject</text></g><!--link DISCONTINUED to *end*--><g id="link_DISCONTINUED_*end*"><path d="M254,311.46 C254,331.04 254,351.49 254,365.8 " fill="none" id="DISCONTINUED-to-*end*" style="stroke:#181818;stroke-width:1.0;"/><polygon fill="#181818" points="254,371.8,258,362.8,254,366.8,250,362.8,254,371.8" style="stroke:#181818;stroke-width:1.0;"/></g><!--link REJECTED to DRAFT--><g id="link_REJECTED_DRAFT"><path d="M477,184.4 C477,206.42 477,232.66 477,254.66 " fill="none" id="REJECTED-to-DRAFT" style="stroke:#181818;stroke-width:1.0;"/><polygon fill="#181818" points="477,260.66,481,251.66,477,255.66,473,251.66,477,260.66" style="stroke:#181818;stroke-width:1.0;"/><text fill="#000000" font-family="sans-serif" font-size="13" lengthAdjust="spacing" textLength="24" x="478" y="227.5684">edit</text></g><rect fill="#DDDDDD" height="96.4414" id="_legend" rx="7.5" ry="7.5" style="stroke:#000000;stroke-width:1.0;" width="266" x="289" y="411"/><rect fill="#F8F8FF" height="16.4883" style="stroke:none;stroke-width:1.0;" width="256" x="294" y="418"/><text fill="#000000" font-family="sans-serif" font-size="14" lengthAdjust="spacing" textLength="32" x="294" y="431.5352">&#160;&#160;&#160;&#160;&#160;&#160;&#160;&#160;</text><text fill="#000000" font-family="sans-serif" font-size="14" font-weight="bold" lengthAdjust="spacing" textLength="5" x="326" y="431.5352">&#160;</text><text fill="#000000" font-family="sans-serif" font-size="14" font-weight="bold" lengthAdjust="spacing" text-decoration="underline" textLength="51" x="331" y="431.5352">Legend</text><text fill="#000000" font-family="sans-serif" font-size="14" font-weight="bold" lengthAdjust="spacing" textLength="5" x="382" y="431.5352">&#160;</text><rect fill="#FF4500" height="16.4883" style="stroke:none;stroke-width:1.0;" width="32" x="294" y="434.4883"/><text fill="#000000" font-family="sans-serif" font-size="14" lengthAdjust="spacing" textLength="12" x="294" y="448.0234">&#160;&#160;&#160;</text><text fill="#000000" font-family="sans-serif" font-size="14" lengthAdjust="spacing" textLength="107" x="330" y="448.0234">Orphaned State</text><rect fill="#CD853F" height="16.4883" style="stroke:none;stroke-width:1.0;" width="32" x="294" y="450.9766"/><text fill="#000000" font-family="sans-serif" font-size="14" lengthAdjust="spacing" textLength="12" x="294" y="464.5117">&#160;&#160;&#160;</text><text fill="#000000" font-family="sans-serif" font-size="14" lengthAdjust="spacing" textLength="67" x="330" y="464.5117">Main Path</text><rect fill="#ADD8E6" height="16.4883" style="stroke:none;stroke-width:1.0;" width="32" x="294" y="467.4648"/><text fill="#000000" font-family="sans-serif" font-size="14" lengthAdjust="spacing" textLength="4" x="294" y="481">&#160;</text><text fill="#000000" font-family="sans-serif" font-size="14" lengthAdjust="spacing" textLength="224" x="326" y="481">Transitions without state change</text><rect fill="#98FB98" height="16.4883" style="stroke:none;stroke-width:1.0;" width="32" x="294" y="483.9531"/><text fill="#000000" font-family="sans-serif" font-size="14" lengthAdjust="spacing" textLength="4" x="294" y="497.4883">&#160;</text><text fill="#000000" font-family="sans-serif" font-size="14" lengthAdjust="spacing" textLength="209" x="326" y="497.4883">Automatic State Computations</text><line style="stroke:#F8F8FF;stroke-width:1.0;" x1="294" x2="550" y1="418" y2="418"/><line style="stroke:#F8F8FF;stroke-width:1.0;" x1="294" x2="550" y1="434.4883" y2="434.4883"/><line style="stroke:#F8F8FF;stroke-width:1.0;" x1="294" x2="550" y1="450.9766" y2="450.9766"/><line style="stroke:#F8F8FF;stroke-width:1.0;" x1="294" x2="550" y1="467.4648" y2="467.4648"/><line style="stroke:#F8F8FF;stroke-width:1.0;" x1="294" x2="550" y1="483.9531" y2="483.9531"/><line style="stroke:#F8F8FF;stroke-width:1.0;" x1="294" x2="550" y1="500.4414" y2="500.4414"/><line style="stroke:#F8F8FF;stroke-width:1.0;" x1="294" x2="294" y1="418" y2="500.4414"/><line style="stroke:#F8F8FF;stroke-width:1.0;" x1="326" x2="326" y1="418" y2="500.4414"/><line style="stroke:#F8F8FF;stroke-width:1.0;" x1="550" x2="550" y1="418" y2="500.4414"/><!--SRC=[RLB1RjGm4BtxAqRQMqL1Gd2fGgHichQ1xMQrcxO7X2AJ31kp6plO3gWY_3lZE4qt51yIZz-RDy-U2OnzF6B8mArAy4R92dxxSCdBmrwhJbQnEYeDYvOVSQyHfSTNGkA8_7EQrw8yI3G6thv-xu__q2zuCrKp1o5Rhda3ndABu6ikbQvGJzb1S1kbws8JvJTX2E-U6KFLERf1tR6NfkUafJ0_ElmlJUcsvX8hOcMQoprkiMBEjlSNnNbwdup1vJQwoiVzDhbFauSnoExo8higTdaMVthYfhiuM-Vf-Ywvd58-9d5EeHU5y_DmHeCBweGfbRH2ajiJrga-iLHdisyxgye3-tpsnUiCreRl47jxn3NTrqPODiOE6dKlWBUjLZ_n57koIAZ6xrXQDYizIzTe1WkpApW6UMAJq6IECh0Y9pHAIBEcnRwsB5XSryhOXrfOV7Mo3tiOL_y1Yc8rv1G5zAmF5bEVGeTJstm7OUTUUM2ueV3WBHSIDjpMm_dA5LqUEmoXpqd522kKDF1Bs9eUTPp9idRwNeWc_zhDE2L4dLKDjwBqXI1MJTlHpYdqZFpvc_q5]--></g></svg>