<?xml version="1.0" encoding="us-ascii" standalone="no"?><svg xmlns="http://www.w3.org/2000/svg" xmlns:xlink="http://www.w3.org/1999/xlink" contentStyleType="text/css" height="734px" preserveAspectRatio="none" style="width:298px;height:734px;background:#FFFFFF;" version="1.1" viewBox="0 0 298 734" width="298px" zoomAndPan="magnify"><defs/><g><g id="CLOSED"><rect fill="#F1F1F1" height="50" rx="12.5" ry="12.5" style="stroke:#181818;stroke-width:0.5;" width="74" x="114" y="468"/><line style="stroke:#181818;stroke-width:0.5;" x1="114" x2="188" y1="494.4883" y2="494.4883"/><text fill="#000000" font-family="sans-serif" font-size="14" lengthAdjust="spacing" textLength="54" x="124" y="486.5352">CLOSED</text></g><g id="RESOLVED"><rect fill="#F1F1F1" height="50" rx="12.5" ry="12.5" style="stroke:#181818;stroke-width:0.5;" width="90" x="106" y="341"/><line style="stroke:#181818;stroke-width:0.5;" x1="106" x2="196" y1="367.4883" y2="367.4883"/><text fill="#000000" font-family="sans-serif" font-size="14" lengthAdjust="spacing" textLength="70" x="116" y="359.5352">RESOLVED</text></g><g id="ASSIGNED"><rect fill="#F1F1F1" height="50" rx="12.5" ry="12.5" style="stroke:#181818;stroke-width:0.5;" width="88" x="107" y="214"/><line style="stroke:#181818;stroke-width:0.5;" x1="107" x2="195" y1="240.4883" y2="240.4883"/><text fill="#000000" font-family="sans-serif" font-size="14" lengthAdjust="spacing" textLength="68" x="117" y="232.5352">ASSIGNED</text></g><g id="OPENED"><rect fill="#F1F1F1" height="50" rx="12.5" ry="12.5" style="stroke:#181818;stroke-width:0.5;" width="75" x="113.5" y="87"/><line style="stroke:#181818;stroke-width:0.5;" x1="113.5" x2="188.5" y1="113.4883" y2="113.4883"/><text fill="#000000" font-family="sans-serif" font-size="14" lengthAdjust="spacing" textLength="55" x="123.5" y="105.5352">OPENED</text></g><ellipse cx="151" cy="590" fill="none" rx="11" ry="11" style="stroke:#222222;stroke-width:1.0;"/><ellipse cx="151" cy="590" fill="#222222" rx="6" ry="6" style="stroke:#222222;stroke-width:1.0;"/><ellipse cx="151" cy="16" fill="#222222" rx="10" ry="10" style="stroke:#222222;stroke-width:1.0;"/><!--link CLOSED to *end*--><g id="link_CLOSED_*end*"><path d="M151,518.46 C151,538.04 151,558.49 151,572.8 " fill="none" id="CLOSED-to-*end*" style="stroke:#181818;stroke-width:1.0;"/><polygon fill="#181818" points="151,578.8,155,569.8,151,573.8,147,569.8,151,578.8" style="stroke:#181818;stroke-width:1.0;"/></g><!--link RESOLVED to CLOSED--><g id="link_RESOLVED_CLOSED"><path d="M151,391.4 C151,413.42 151,439.66 151,461.66 " fill="none" id="RESOLVED-to-CLOSED" style="stroke:#181818;stroke-width:1.0;"/><polygon fill="#181818" points="151,467.66,155,458.66,151,462.66,147,458.66,151,467.66" style="stroke:#181818;stroke-width:1.0;"/><text fill="#000000" font-family="sans-serif" font-size="13" lengthAdjust="spacing" textLength="33" x="152" y="434.5684">close</text></g><!--link ASSIGNED to RESOLVED--><g id="link_ASSIGNED_RESOLVED"><path d="M151,264.4 C151,286.42 151,312.66 151,334.66 " fill="none" id="ASSIGNED-to-RESOLVED" style="stroke:#181818;stroke-width:1.0;"/><polygon fill="#181818" points="151,340.66,155,331.66,151,335.66,147,331.66,151,340.66" style="stroke:#181818;stroke-width:1.0;"/><text fill="#000000" font-family="sans-serif" font-size="13" lengthAdjust="spacing" textLength="45" x="152" y="307.5684">resolve</text></g><!--link *start* to OPENED--><g id="link_*start*_OPENED"><path d="M151,26.36 C151,40.29 151,60.95 151,80.65 " fill="none" id="*start*-to-OPENED" style="stroke:#181818;stroke-width:1.0;"/><polygon fill="#181818" points="151,86.65,155,77.65,151,81.65,147,77.65,151,86.65" style="stroke:#181818;stroke-width:1.0;"/></g><!--link OPENED to ASSIGNED--><g id="link_OPENED_ASSIGNED"><path d="M151,137.4 C151,159.42 151,185.66 151,207.66 " fill="none" id="OPENED-to-ASSIGNED" style="stroke:#181818;stroke-width:1.0;"/><polygon fill="#181818" points="151,213.66,155,204.66,151,208.66,147,204.66,151,213.66" style="stroke:#181818;stroke-width:1.0;"/><text fill="#000000" font-family="sans-serif" font-size="13" lengthAdjust="spacing" textLength="41" x="152" y="180.5684">assign</text></g><rect fill="#DDDDDD" height="96.4414" id="_legend" rx="7.5" ry="7.5" style="stroke:#000000;stroke-width:1.0;" width="266" x="12" y="618"/><rect fill="#F8F8FF" height="16.4883" style="stroke:none;stroke-width:1.0;" width="256" x="17" y="625"/><text fill="#000000" font-family="sans-serif" font-size="14" lengthAdjust="spacing" textLength="32" x="17" y="638.5352">&#160;&#160;&#160;&#160;&#160;&#160;&#160;&#160;</text><text fill="#000000" font-family="sans-serif" font-size="14" font-weight="bold" lengthAdjust="spacing" textLength="5" x="49" y="638.5352">&#160;</text><text fill="#000000" font-family="sans-serif" font-size="14" font-weight="bold" lengthAdjust="spacing" text-decoration="underline" textLength="51" x="54" y="638.5352">Legend</text><text fill="#000000" font-family="sans-serif" font-size="14" font-weight="bold" lengthAdjust="spacing" textLength="5" x="105" y="638.5352">&#160;</text><rect fill="#FF4500" height="16.4883" style="stroke:none;stroke-width:1.0;" width="32" x="17" y="641.4883"/><text fill="#000000" font-family="sans-serif" font-size="14" lengthAdjust="spacing" textLength="12" x="17" y="655.0234">&#160;&#160;&#160;</text><text fill="#000000" font-family="sans-serif" font-size="14" lengthAdjust="spacing" textLength="107" x="53" y="655.0234">Orphaned State</text><rect fill="#CD853F" height="16.4883" style="stroke:none;stroke-width:1.0;" width="32" x="17" y="657.9766"/><text fill="#000000" font-family="sans-serif" font-size="14" lengthAdjust="spacing" textLength="12" x="17" y="671.5117">&#160;&#160;&#160;</text><text fill="#000000" font-family="sans-serif" font-size="14" lengthAdjust="spacing" textLength="67" x="53" y="671.5117">Main Path</text><rect fill="#ADD8E6" height="16.4883" style="stroke:none;stroke-width:1.0;" width="32" x="17" y="674.4648"/><text fill="#000000" font-family="sans-serif" font-size="14" lengthAdjust="spacing" textLength="4" x="17" y="688">&#160;</text><text fill="#000000" font-family="sans-serif" font-size="14" lengthAdjust="spacing" textLength="224" x="49" y="688">Transitions without state change</text><rect fill="#98FB98" height="16.4883" style="stroke:none;stroke-width:1.0;" width="32" x="17" y="690.9531"/><text fill="#000000" font-family="sans-serif" font-size="14" lengthAdjust="spacing" textLength="4" x="17" y="704.4883">&#160;</text><text fill="#000000" font-family="sans-serif" font-size="14" lengthAdjust="spacing" textLength="209" x="49" y="704.4883">Automatic State Computations</text><line style="stroke:#F8F8FF;stroke-width:1.0;" x1="17" x2="273" y1="625" y2="625"/><line style="stroke:#F8F8FF;stroke-width:1.0;" x1="17" x2="273" y1="641.4883" y2="641.4883"/><line style="stroke:#F8F8FF;stroke-width:1.0;" x1="17" x2="273" y1="657.9766" y2="657.9766"/><line style="stroke:#F8F8FF;stroke-width:1.0;" x1="17" x2="273" y1="674.4648" y2="674.4648"/><line style="stroke:#F8F8FF;stroke-width:1.0;" x1="17" x2="273" y1="690.9531" y2="690.9531"/><line style="stroke:#F8F8FF;stroke-width:1.0;" x1="17" x2="273" y1="707.4414" y2="707.4414"/><line style="stroke:#F8F8FF;stroke-width:1.0;" x1="17" x2="17" y1="625" y2="707.4414"/><line style="stroke:#F8F8FF;stroke-width:1.0;" x1="49" x2="49" y1="625" y2="707.4414"/><line style="stroke:#F8F8FF;stroke-width:1.0;" x1="273" x2="273" y1="625" y2="707.4414"/><!--SRC=[RL9TIyCm57tFhxYmDt4AeY-Z5hevvg1RophqGQI4zjA6jKbDKaMi_zsawQfJyvBSU-uvzokUqkyL-WJioHcj1S_XmvbpcXqAALgUBqGb94mQMc4X4Rd3GyPnG7vvzoNB3XoLWgkB6-V-D9TtEMPJ1yORAcaDIbEDu7BEXSnHZcpFsmJhRHe7-tlVX-llY3xhAHgZRCdVea-3vaozjFXlc91DIJdc9YgIb1UumvpOibrzYp1AbdU3iLicKVWmca6Ih5VRqOpYfJKS0wPJ7vxEdicHqpi6R0PP9HIIeq2FZO4paAX4zOh4y7jeK7PNxncPCw1AiO8Jio4qAvIiA3Nn9gjIAFrOCetdFzv-1yFfRY5DmvwJfj2HpfkCxViMDzDmWu74TjT7s5axS4CPXvZgilU7DkcyQj67RczK5DDCS0LlJ9UYrSEgizBgEo7peLRswnX2q6fHKyqobmWMecvQyx8A7J7rkSw-0000]--></g></svg>